<?xml version="1.0" encoding="UTF-8" standalone="no"?>
<!-- Created with Inkscape (http://www.inkscape.org/) -->

<svg
   width="107mm"
   height="18mm"
   viewBox="0 0 107 18"
   version="1.1"
   id="svg1"
   xmlns="http://www.w3.org/2000/svg"
   xmlns:svg="http://www.w3.org/2000/svg">
  <defs
     id="defs1">
    <clipPath
       clipPathUnits="userSpaceOnUse"
       id="clipPath5">
      <path
         d="M 33,825 H 645 V 33 H 33 Z"
         transform="translate(-337.63111,-436.56621)"
         id="path5" />
    </clipPath>
    <clipPath
       clipPathUnits="userSpaceOnUse"
       id="clipPath7">
      <path
         d="M 33,825 H 645 V 33 H 33 Z"
         transform="translate(-347.42911,-443.22641)"
         id="path7" />
    </clipPath>
    <clipPath
       clipPathUnits="userSpaceOnUse"
       id="clipPath9">
      <path
         d="M 33,825 H 645 V 33 H 33 Z"
         transform="translate(-377.46261,-450.62561)"
         id="path9" />
    </clipPath>
    <clipPath
       clipPathUnits="userSpaceOnUse"
       id="clipPath11">
      <path
         d="M 33,825 H 645 V 33 H 33 Z"
         transform="translate(-407.56001,-437.91421)"
         id="path11" />
    </clipPath>
    <clipPath
       clipPathUnits="userSpaceOnUse"
       id="clipPath13">
      <path
         d="M 33,825 H 645 V 33 H 33 Z"
         id="path13" />
    </clipPath>
    <clipPath
       clipPathUnits="userSpaceOnUse"
       id="clipPath15">
      <path
         d="M 33,825 H 645 V 33 H 33 Z"
         transform="translate(-442.65731,-436.21081)"
         id="path15" />
    </clipPath>
    <clipPath
       clipPathUnits="userSpaceOnUse"
       id="clipPath17">
      <path
         d="M 33,825 H 645 V 33 H 33 Z"
         transform="translate(-458.07011,-440.91831)"
         id="path17" />
    </clipPath>
    <clipPath
       clipPathUnits="userSpaceOnUse"
       id="clipPath19">
      <path
         d="M 33,825 H 645 V 33 H 33 Z"
         transform="translate(-480.80281,-435.70721)"
         id="path19" />
    </clipPath>
    <clipPath
       clipPathUnits="userSpaceOnUse"
       id="clipPath21">
      <path
         d="M 33,825 H 645 V 33 H 33 Z"
         transform="translate(-281.27521,-413.35981)"
         id="path21" />
    </clipPath>
    <clipPath
       clipPathUnits="userSpaceOnUse"
       id="clipPath23">
      <path
         d="M 33,825 H 645 V 33 H 33 Z"
         transform="translate(-302.45721,-415.71351)"
         id="path23" />
    </clipPath>
    <clipPath
       clipPathUnits="userSpaceOnUse"
       id="clipPath25">
      <path
         d="M 33,825 H 645 V 33 H 33 Z"
         transform="translate(-315.24621,-422.12271)"
         id="path25" />
    </clipPath>
    <clipPath
       clipPathUnits="userSpaceOnUse"
       id="clipPath27">
      <path
         d="M 33,825 H 645 V 33 H 33 Z"
         transform="translate(-339.34991,-410.87241)"
         id="path27" />
    </clipPath>
    <clipPath
       clipPathUnits="userSpaceOnUse"
       id="clipPath29">
      <path
         d="M 33,825 H 645 V 33 H 33 Z"
         transform="translate(-373.30381,-424.04611)"
         id="path29" />
    </clipPath>
    <clipPath
       clipPathUnits="userSpaceOnUse"
       id="clipPath31">
      <path
         d="M 33,825 H 645 V 33 H 33 Z"
         transform="translate(-393.54201,-413.35981)"
         id="path31" />
    </clipPath>
    <clipPath
       clipPathUnits="userSpaceOnUse"
       id="clipPath33">
      <path
         d="M 33,825 H 645 V 33 H 33 Z"
         transform="translate(-206.6698,-418.10351)"
         id="path33" />
    </clipPath>
    <clipPath
       clipPathUnits="userSpaceOnUse"
       id="clipPath35">
      <path
         d="M 33,825 H 645 V 33 H 33 Z"
         transform="translate(-210.03661,-432.95941)"
         id="path35" />
    </clipPath>
    <clipPath
       clipPathUnits="userSpaceOnUse"
       id="clipPath37">
      <path
         d="M 33,825 H 645 V 33 H 33 Z"
         transform="translate(-192.1141,-454.54901)"
         id="path37" />
    </clipPath>
    <clipPath
       clipPathUnits="userSpaceOnUse"
       id="clipPath39">
      <path
         d="M 33,825 H 645 V 33 H 33 Z"
         transform="translate(-211.5598,-454.61911)"
         id="path39" />
    </clipPath>
    <clipPath
       clipPathUnits="userSpaceOnUse"
       id="clipPath41">
      <path
         d="M 33,825 H 645 V 33 H 33 Z"
         transform="translate(-221.03811,-430.30331)"
         id="path41" />
    </clipPath>
    <clipPath
       clipPathUnits="userSpaceOnUse"
       id="clipPath43">
      <path
         d="M 33,825 H 645 V 33 H 33 Z"
         transform="translate(-237.04461,-450.31451)"
         id="path43" />
    </clipPath>
    <clipPath
       clipPathUnits="userSpaceOnUse"
       id="clipPath45">
      <path
         d="M 33,825 H 645 V 33 H 33 Z"
         transform="translate(-237.5356,-442.66181)"
         id="path45" />
    </clipPath>
    <clipPath
       clipPathUnits="userSpaceOnUse"
       id="clipPath47">
      <path
         d="M 33,825 H 645 V 33 H 33 Z"
         transform="translate(-221.9194,-444.37721)"
         id="path47" />
    </clipPath>
    <clipPath
       clipPathUnits="userSpaceOnUse"
       id="clipPath49">
      <path
         d="M 33,825 H 645 V 33 H 33 Z"
         transform="translate(-250.1845,-454.61911)"
         id="path49" />
    </clipPath>
  </defs>
  <g
     id="layer1">
    <g
       id="group-MC0"
       transform="matrix(0.26225696,0,0,0.26225696,-53.450822,-129.41315)">
      <path
         id="path2"
         d="M 0,0 -8.23,13.495 H -9.8 V -6.873 h 2.191 V 8.732 l 6.84,-11.224 H 0.769 L 7.609,8.732 V -6.873 H 9.8 V 13.495 H 8.232 Z"
         style="fill:currentColor;fill-opacity:1;fill-rule:nonzero;stroke:none"
         transform="matrix(1.3333333,0,0,-1.3333333,330.38173,512.53787)" />
      <path
         id="path3"
         d="M 0,0 H 10.303 V 1.925 H 0 v 6.986 h 11.073 v 1.984 H 0 -0.74 -2.191 V -9.474 H -0.74 0 11.25 V -7.49 H 0 Z"
         style="fill:currentColor;fill-opacity:1;fill-rule:nonzero;stroke:none"
         transform="matrix(1.3333333,0,0,-1.3333333,358.37,509.07053)" />
      <path
         id="path4"
         d="M 0,0 -1.511,1.509 C -2.202,0.72 -3.055,0.098 -4.072,-0.355 -5.089,-0.81 -6.248,-1.037 -7.55,-1.037 c -1.144,0 -2.201,0.207 -3.169,0.621 -0.967,0.416 -1.804,1.003 -2.515,1.762 -0.711,0.76 -1.263,1.653 -1.659,2.68 -0.395,1.025 -0.592,2.142 -0.592,3.345 0,1.185 0.192,2.29 0.577,3.317 0.386,1.025 0.937,1.914 1.659,2.663 0.719,0.75 1.559,1.334 2.515,1.748 0.959,0.414 2.009,0.621 3.154,0.621 1.244,0 2.369,-0.222 3.375,-0.665 1.007,-0.445 1.855,-1.061 2.546,-1.852 l 1.511,1.511 c -0.929,0.967 -2.01,1.726 -3.242,2.279 -1.234,0.552 -2.631,0.829 -4.19,0.829 -1.46,0 -2.808,-0.267 -4.04,-0.8 -1.234,-0.531 -2.315,-1.273 -3.242,-2.22 -0.93,-0.947 -1.643,-2.057 -2.147,-3.33 -0.504,-1.273 -0.755,-2.641 -0.755,-4.101 0,-1.461 0.256,-2.827 0.77,-4.1 0.513,-1.273 1.233,-2.394 2.161,-3.361 0.927,-0.966 2.013,-1.716 3.257,-2.249 1.243,-0.533 2.595,-0.8 4.055,-0.8 1.56,0 2.977,0.277 4.25,0.829 C -1.998,-1.757 -0.91,-0.988 0,0"
         style="fill:currentColor;fill-opacity:1;fill-rule:nonzero;stroke:none"
         transform="matrix(1.3333333,0,0,-1.3333333,406.1748,517.91173)"
         clip-path="url(#clipPath5)" />
      <path
         id="path6"
         d="m 0,0 h 11.162 v -9.503 h 2.191 V 10.866 H 11.162 V 2.013 H 0 v 8.853 H -2.191 V -9.503 H 0 Z"
         style="fill:currentColor;fill-opacity:1;fill-rule:nonzero;stroke:none"
         transform="matrix(1.3333333,0,0,-1.3333333,419.2388,509.03147)"
         clip-path="url(#clipPath7)" />
      <path
         id="path8"
         d="m 0,0 3.871,-9.707 h -7.789 z m -4.683,-11.603 h 9.31 l 2.112,-5.299 H 9.106 L 0.845,3.466 H -0.811 L -9.13,-16.902 h 2.308 z"
         style="fill:currentColor;fill-opacity:1;fill-rule:nonzero;stroke:none"
         transform="matrix(1.3333333,0,0,-1.3333333,459.28347,499.16587)"
         clip-path="url(#clipPath9)" />
      <path
         id="path10"
         d="M 0,0 -11.902,16.178 H -13.47 V -4.191 h 2.19 V 11.987 L 0.623,-4.191 H 2.191 V 16.178 H 0 Z"
         style="fill:currentColor;fill-opacity:1;fill-rule:nonzero;stroke:none"
         transform="matrix(1.3333333,0,0,-1.3333333,499.41333,516.1144)"
         clip-path="url(#clipPath11)" />
      <path
         id="path12"
         d="m 418.748,433.723 h 2.191 v 20.369 h -2.191 z"
         style="fill:currentColor;fill-opacity:1;fill-rule:nonzero;stroke:none"
         transform="matrix(1.3333333,0,0,-1.3333333,-44,1100)"
         clip-path="url(#clipPath13)" />
      <path
         id="path14"
         d="m 0,0 c -1.017,-0.455 -2.178,-0.681 -3.478,-0.681 -1.145,0 -2.201,0.207 -3.169,0.621 -0.968,0.415 -1.806,1.002 -2.517,1.762 -0.711,0.759 -1.262,1.653 -1.659,2.679 -0.395,1.026 -0.59,2.142 -0.59,3.345 0,1.185 0.192,2.29 0.577,3.317 0.384,1.026 0.935,1.914 1.659,2.664 0.717,0.75 1.558,1.333 2.514,1.747 0.958,0.414 2.008,0.621 3.155,0.621 1.242,0 2.367,-0.222 3.374,-0.665 1.008,-0.445 1.855,-1.061 2.546,-1.852 l 1.51,1.511 c -0.929,0.967 -2.008,1.727 -3.241,2.279 -1.235,0.553 -2.63,0.83 -4.189,0.83 -1.46,0 -2.81,-0.267 -4.042,-0.8 -1.232,-0.532 -2.315,-1.274 -3.241,-2.221 -0.929,-0.947 -1.643,-2.057 -2.148,-3.33 -0.502,-1.273 -0.753,-2.64 -0.753,-4.101 0,-1.46 0.254,-2.826 0.769,-4.099 0.512,-1.273 1.233,-2.395 2.162,-3.361 0.926,-0.967 2.011,-1.717 3.256,-2.25 1.243,-0.533 2.595,-0.8 4.056,-0.8 1.558,0 2.976,0.277 4.248,0.83 1.274,0.552 2.363,1.322 3.273,2.309 L 2.559,1.865 C 1.868,1.076 1.017,0.453 0,0"
         style="fill:currentColor;fill-opacity:1;fill-rule:nonzero;stroke:none"
         transform="matrix(1.3333333,0,0,-1.3333333,546.20973,518.3856)"
         clip-path="url(#clipPath15)" />
      <path
         id="path16"
         d="M 0,0 3.917,9.703 7.786,0 Z M 3.104,13.174 -5.215,-7.195 h 2.311 l 2.139,5.299 h 9.306 l 2.113,-5.299 h 2.37 L 4.763,13.174 Z"
         style="fill:currentColor;fill-opacity:1;fill-rule:nonzero;stroke:none"
         transform="matrix(1.3333333,0,0,-1.3333333,566.76013,512.10893)"
         clip-path="url(#clipPath17)" />
      <path
         id="path18"
         d="M 0,0 V 18.385 H -2.191 V -1.984 H -0.74 0 10.481 V 0 Z"
         style="fill:currentColor;fill-opacity:1;fill-rule:nonzero;stroke:none"
         transform="matrix(1.3333333,0,0,-1.3333333,597.0704,519.05707)"
         clip-path="url(#clipPath19)" />
      <path
         id="path20"
         d="m 0,0 c -0.603,0.453 -1.268,0.828 -1.998,1.125 -0.731,0.296 -1.456,0.567 -2.176,0.815 -0.721,0.244 -1.388,0.528 -1.999,0.844 -0.613,0.313 -1.1,0.711 -1.465,1.183 -0.365,0.473 -0.548,1.086 -0.548,1.836 0,0.988 0.355,1.757 1.066,2.308 0.711,0.554 1.658,0.831 2.841,0.831 0.988,0 1.855,-0.192 2.607,-0.58 C -0.923,7.977 -0.233,7.4 0.399,6.631 l 1.51,1.509 c -0.691,0.871 -1.554,1.562 -2.59,2.074 -1.037,0.511 -2.216,0.769 -3.537,0.769 -1.185,0 -2.247,-0.212 -3.184,-0.636 -0.937,-0.424 -1.672,-1.03 -2.205,-1.822 -0.533,-0.789 -0.799,-1.734 -0.799,-2.84 0,-1.046 0.186,-1.91 0.562,-2.591 0.375,-0.682 0.863,-1.233 1.466,-1.66 0.601,-0.423 1.268,-0.779 1.998,-1.066 0.73,-0.283 1.456,-0.557 2.176,-0.811 0.721,-0.258 1.386,-0.548 1.999,-0.874 0.611,-0.326 1.1,-0.75 1.465,-1.275 0.365,-0.521 0.548,-1.19 0.548,-1.998 0,-1.047 -0.4,-1.865 -1.2,-2.455 -0.799,-0.593 -1.85,-0.89 -3.152,-0.89 -1.264,0 -2.354,0.238 -3.272,0.711 -0.918,0.473 -1.723,1.193 -2.412,2.161 l -1.511,-1.48 c 0.849,-1.105 1.845,-1.953 2.991,-2.546 1.144,-0.593 2.516,-0.89 4.114,-0.89 2.054,0 3.676,0.489 4.87,1.467 1.195,0.978 1.792,2.344 1.792,4.101 0,1.086 -0.188,1.979 -0.563,2.68 C 1.09,-1.033 0.601,-0.453 0,0"
         style="fill:currentColor;fill-opacity:1;fill-rule:nonzero;stroke:none"
         transform="matrix(1.3333333,0,0,-1.3333333,331.0336,548.8536)"
         clip-path="url(#clipPath21)" />
      <path
         id="path22"
         d="M 0,0 C -0.375,-0.623 -0.893,-1.102 -1.555,-1.438 -2.215,-1.773 -2.971,-1.94 -3.819,-1.94 H -9.03 v 8.349 h 5.211 c 0.848,0 1.604,-0.166 2.264,-0.502 C -0.893,5.571 -0.375,5.092 0,4.469 0.375,3.85 0.562,3.104 0.562,2.236 0.562,1.366 0.375,0.623 0,0 M -0.355,7.58 C -1.322,8.082 -2.417,8.333 -3.641,8.333 H -9.03 -9.8 -11.221 v -20.369 h 2.191 v 8.173 h 5.389 c 1.224,0 2.319,0.251 3.286,0.753 0.966,0.505 1.732,1.209 2.295,2.119 0.562,0.906 0.842,1.982 0.842,3.227 0,1.223 -0.28,2.292 -0.842,3.211 C 1.377,6.364 0.611,7.074 -0.355,7.58"
         style="fill:currentColor;fill-opacity:1;fill-rule:nonzero;stroke:none"
         transform="matrix(1.3333333,0,0,-1.3333333,359.27627,545.71533)"
         clip-path="url(#clipPath23)" />
      <path
         id="path24"
         d="m 0,0 h 5.152 c 1.342,0 2.369,-0.349 3.08,-1.05 0.71,-0.701 1.066,-1.604 1.066,-2.709 0,-1.124 -0.362,-2.027 -1.081,-2.709 C 7.495,-7.149 6.465,-7.491 5.123,-7.491 H 0 Z m 8.556,-8.646 c 0.949,0.476 1.674,1.132 2.176,1.97 0.504,0.837 0.756,1.832 0.756,2.976 0,1.085 -0.252,2.05 -0.756,2.901 C 10.23,0.049 9.505,0.714 8.556,1.2 7.609,1.682 6.474,1.923 5.152,1.923 H 0 -0.769 -2.191 V -18.445 H 0 v 9.089 h 2.752 l 7.374,-9.089 h 2.813 L 5.428,-9.33 c 1.197,0.033 2.252,0.247 3.128,0.684"
         style="fill:currentColor;fill-opacity:1;fill-rule:nonzero;stroke:none"
         transform="matrix(1.3333333,0,0,-1.3333333,376.32827,537.16973)"
         clip-path="url(#clipPath25)" />
      <path
         id="path26"
         d="M 0,0 3.918,9.707 7.788,0 Z m 3.106,13.174 -8.32,-20.369 h 2.31 l 2.14,5.301 h 9.307 l 2.113,-5.301 h 2.369 L 4.764,13.174 Z"
         style="fill:currentColor;fill-opacity:1;fill-rule:nonzero;stroke:none"
         transform="matrix(1.3333333,0,0,-1.3333333,408.46653,552.17013)"
         clip-path="url(#clipPath27)" />
      <path
         id="path28"
         d="M 0,0 -6.214,-9.24 -12.404,0 h -2.546 l 7.638,-11.305 v -9.064 h 2.191 v 9.189 L 2.487,0 Z"
         style="fill:currentColor;fill-opacity:1;fill-rule:nonzero;stroke:none"
         transform="matrix(1.3333333,0,0,-1.3333333,453.7384,534.6052)"
         clip-path="url(#clipPath29)" />
      <path
         id="path30"
         d="m 0,0 c -0.603,0.453 -1.268,0.828 -1.998,1.125 -0.731,0.296 -1.458,0.567 -2.178,0.815 -0.721,0.244 -1.386,0.528 -1.998,0.844 -0.613,0.313 -1.099,0.711 -1.464,1.183 -0.365,0.473 -0.548,1.086 -0.548,1.836 0,0.988 0.355,1.757 1.066,2.308 0.711,0.554 1.656,0.831 2.84,0.831 0.987,0 1.855,-0.192 2.608,-0.58 C -0.923,7.977 -0.235,7.4 0.398,6.631 L 1.907,8.14 c -0.691,0.871 -1.552,1.562 -2.588,2.074 -1.037,0.511 -2.217,0.769 -3.537,0.769 -1.187,0 -2.247,-0.212 -3.186,-0.636 -0.935,-0.424 -1.672,-1.03 -2.203,-1.822 -0.535,-0.789 -0.799,-1.734 -0.799,-2.84 0,-1.046 0.186,-1.91 0.561,-2.591 0.375,-0.682 0.864,-1.233 1.467,-1.66 0.6,-0.423 1.268,-0.779 1.998,-1.066 0.73,-0.283 1.454,-0.557 2.175,-0.811 0.72,-0.258 1.385,-0.548 1.998,-0.874 0.613,-0.326 1.102,-0.75 1.467,-1.275 0.365,-0.521 0.548,-1.19 0.548,-1.998 0,-1.047 -0.401,-1.865 -1.2,-2.455 -0.799,-0.593 -1.852,-0.89 -3.152,-0.89 -1.265,0 -2.354,0.238 -3.274,0.711 -0.916,0.473 -1.721,1.193 -2.412,2.161 l -1.509,-1.48 c 0.847,-1.105 1.845,-1.953 2.989,-2.546 1.144,-0.593 2.517,-0.89 4.114,-0.89 2.054,0 3.678,0.489 4.871,1.467 1.196,0.978 1.793,2.344 1.793,4.101 0,1.086 -0.189,1.979 -0.564,2.68 C 1.089,-1.033 0.6,-0.453 0,0"
         style="fill:currentColor;fill-opacity:1;fill-rule:nonzero;stroke:none"
         transform="matrix(1.3333333,0,0,-1.3333333,480.72267,548.8536)"
         clip-path="url(#clipPath31)" />
      <path
         id="path32"
         d="m 0,0 c -2.981,0 -5.398,-2.417 -5.398,-5.398 0,-2.981 2.417,-5.398 5.398,-5.398 2.981,0 5.398,2.417 5.398,5.398 C 5.398,-2.417 2.981,0 0,0"
         style="fill:currentColor;fill-opacity:1;fill-rule:nonzero;stroke:none"
         transform="matrix(1.3333333,0,0,-1.3333333,231.55973,542.52867)"
         clip-path="url(#clipPath33)" />
      <path
         id="path34"
         d="m 0,0 c 0,2.981 -2.417,5.398 -5.398,5.398 -2.981,0 -5.398,-2.417 -5.398,-5.398 0,-2.981 2.417,-5.398 5.398,-5.398 C -2.417,-5.398 0,-2.981 0,0"
         style="fill:currentColor;fill-opacity:1;fill-rule:nonzero;stroke:none"
         transform="matrix(1.3333333,0,0,-1.3333333,236.0488,522.7208)"
         clip-path="url(#clipPath35)" />
      <path
         id="path36"
         d="m 0,0 c -2.981,0 -5.398,-2.417 -5.398,-5.398 0,-2.981 2.417,-5.398 5.398,-5.398 2.981,0 5.398,2.417 5.398,5.398 C 5.398,-2.417 2.981,0 0,0"
         style="fill:currentColor;fill-opacity:1;fill-rule:nonzero;stroke:none"
         transform="matrix(1.3333333,0,0,-1.3333333,212.15213,493.93467)"
         clip-path="url(#clipPath37)" />
      <path
         id="path38"
         d="m 0,0 c -2.701,0 -4.89,-2.189 -4.89,-4.89 0,-2.701 2.189,-4.89 4.89,-4.89 2.701,0 4.89,2.189 4.89,4.89 C 4.89,-2.189 2.701,0 0,0"
         style="fill:currentColor;fill-opacity:1;fill-rule:nonzero;stroke:none"
         transform="matrix(1.3333333,0,0,-1.3333333,238.07973,493.8412)"
         clip-path="url(#clipPath39)" />
      <path
         id="path40"
         d="m 0,0 c -2.701,0 -4.89,-2.189 -4.89,-4.89 0,-2.701 2.189,-4.89 4.89,-4.89 2.701,0 4.89,2.189 4.89,4.89 C 4.89,-2.189 2.701,0 0,0"
         style="fill:currentColor;fill-opacity:1;fill-rule:nonzero;stroke:none"
         transform="matrix(1.3333333,0,0,-1.3333333,250.71747,526.26227)"
         clip-path="url(#clipPath41)" />
      <path
         id="path42"
         d="m 0,0 c 0,2.377 -1.927,4.305 -4.304,4.305 -2.378,0 -4.305,-1.928 -4.305,-4.305 0,-2.377 1.927,-4.304 4.305,-4.304 C -1.927,-4.304 0,-2.377 0,0"
         style="fill:currentColor;fill-opacity:1;fill-rule:nonzero;stroke:none"
         transform="matrix(1.3333333,0,0,-1.3333333,272.05947,499.58067)"
         clip-path="url(#clipPath43)" />
      <path
         id="path44"
         d="m 0,0 c -2.377,0 -4.305,-1.927 -4.305,-4.304 0,-2.378 1.928,-4.305 4.305,-4.305 2.377,0 4.304,1.927 4.304,4.305 C 4.304,-1.927 2.377,0 0,0"
         style="fill:currentColor;fill-opacity:1;fill-rule:nonzero;stroke:none"
         transform="matrix(1.3333333,0,0,-1.3333333,272.71413,509.78427)"
         clip-path="url(#clipPath45)" />
      <path
         id="path46"
         d="m 0,0 c -2.546,0 -4.609,-2.064 -4.609,-4.609 0,-2.546 2.063,-4.61 4.609,-4.61 2.546,0 4.609,2.064 4.609,4.61 C 4.609,-2.064 2.546,0 0,0"
         style="fill:currentColor;fill-opacity:1;fill-rule:nonzero;stroke:none"
         transform="matrix(1.3333333,0,0,-1.3333333,251.89253,507.49707)"
         clip-path="url(#clipPath47)" />
      <path
         id="path48"
         d="m 0,0 c -2.035,0 -3.684,-1.649 -3.684,-3.684 0,-2.034 1.649,-3.684 3.684,-3.684 2.035,0 3.684,1.65 3.684,3.684 C 3.684,-1.649 2.035,0 0,0"
         style="fill:currentColor;fill-opacity:1;fill-rule:nonzero;stroke:none"
         transform="matrix(1.3333333,0,0,-1.3333333,289.57933,493.8412)"
         clip-path="url(#clipPath49)" />
    </g>
  </g>
</svg>
